<?xml version="1.0" encoding="utf-8"?>
<!-- Generator: Adobe Illustrator 23.1.0, SVG Export Plug-In . SVG Version: 6.00 Build 0)  -->
<svg version="1.1" id="Layer_1" xmlns="http://www.w3.org/2000/svg" xmlns:xlink="http://www.w3.org/1999/xlink" x="0px" y="0px"
	 viewBox="0 0 200 200" style="enable-background:new 0 0 200 200;" xml:space="preserve">
<style type="text/css">
	.st0{fill:#222831;stroke:#FFAD17;stroke-miterlimit:10;}
	.st1{fill:#FFAD17;stroke:#FFAD17;stroke-miterlimit:10;}
</style>
<g>
	<path class="st0" d="M137.33,41.18c0-17.8-14.43-32.22-32.22-32.22S72.89,23.38,72.89,41.18l0,0c-0.05,30.46-0.09,60.93-0.14,91.39
		l0,0c0.08,17.7,14.66,32.22,32.36,32.22c17.7,0,32.28-14.52,32.36-32.22l0,0C137.43,102.11,137.38,71.64,137.33,41.18z"/>
	<path class="st0" d="M80.22,139.99"/>
	<circle class="st1" cx="105.11" cy="37.57" r="20.93"/>
	<circle class="st1" cx="105.11" cy="137.2" r="20.93"/>
</g>
<g>
	<rect x="0" y="0" class="st0" width="200" height="200"/>
	<path class="st0" d="M150.81,119.1c17.8,0,32.22-14.43,32.22-32.22s-14.43-32.22-32.22-32.22l0,0
		c-30.46-0.05-60.93-0.09-91.39-0.14l0,0c-17.7,0.08-32.22,14.66-32.22,32.36c0,17.7,14.52,32.28,32.22,32.36l0,0
		C89.88,119.19,120.34,119.14,150.81,119.1z"/>
	<circle class="st1" cx="154.42" cy="86.87" r="20.93"/>
	<circle class="st1" cx="54.79" cy="86.87" r="20.93"/>
</g>
<path class="st0" d="M54.15,64.73"/>
</svg>
